<svg xmlns="http://www.w3.org/2000/svg" viewBox="0 0 139 39.7"><style type="text/css">* { color: #E6615B; }</style><g id="icon" fill="none" stroke-linecap="round" stroke-miterlimit="10"><path stroke-width="3" stroke="currentColor" d="M77.1 16.1h24M36.1 16.1h22.5M1.5 16.1h15.6M119.6 16.1h17.9M32.1 24.8c3.1 3.1 3.1 8.1 0 11.2-3.1 3-8.1 3-11.2-.1-3.1-3.1-3.1-8.1 0-11.2M74 24.8c3.1 3.1 3.1 8.1 0 11.2-3.1 3.1-8.1 3.1-11.2 0-3.1-3.1-3.1-8.1 0-11.2M115.9 24.8c3.1 3.1 3.1 8.1 0 11.2-3.1 3.1-8.1 3.1-11.2 0-3.1-3.1-3.1-8.1 0-11.2"/><path stroke-width="6" stroke="currentColor" d="M26.5 30.4V3M68.4 30.4V3M110.3 30.4V3"/><path stroke="#2B333C" stroke-width="1.5" d="M25.5 19.1V3M67.4 19.1V3M109.3 19.1V3"/></g></svg>