<svg viewBox="0 0 433.4 178.3" width="433.4" height="178.3" xmlns="http://www.w3.org/2000/svg">
  <defs>
    <style type="text/css">* { color: #E6615B; }</style>
  </defs>
  <g id="icon">
    <path fill="none" stroke-width="6" stroke-linecap="round" stroke-miterlimit="10" d="M50 175.3V28.2c0-4.3 3.5-7.9 7.9-7.9h132.9M190.8 20.3h152.7c4.3 0 7.9 3.5 7.9 7.9v123.5c0 4.3-3.5 7.9-7.9 7.9H74.8M23.1 46.1L4 27c-1.3-1.3-1.3-3.5 0-4.9L23.1 3M23.1 89.1L4 70c-1.3-1.3-1.3-3.5 0-4.9L23.1 46M23.1 132.2L4 113.1c-1.3-1.3-1.3-3.5 0-4.9l19.1-19.1M23.1 175.3L4 156.2c-1.3-1.3-1.3-3.5 0-4.9l19.1-19.1M350.9 175.3H74.8M410.3 132.2l19.1 19.1c1.3 1.3 1.3 3.5 0 4.9l-19.1 19.1M410.3 89.1l19.1 19.1c1.3 1.3 1.3 3.5 0 4.9l-19.1 19.1M410.3 46.1l19.1 19.1c1.3 1.3 1.3 3.5 0 4.9l-19.1 19.1M410.3 3l19.1 19.1c1.3 1.3 1.3 3.5 0 4.9l-19.1 19.1M23.1 3h327.7M371.5 3h38.8M371.5 175.3h38.8M50 175.3H23.1" stroke="currentColor"/>
    <path fill="none" stroke-width="5.659" stroke-linecap="round" stroke-miterlimit="10" stroke="currentColor" d="M371.5 3v6"/>
    <path fill="none" stroke-width="5.659" stroke-linecap="round" stroke-miterlimit="10" stroke-dasharray="12.3291,12.3291" stroke="currentColor" d="M371.5 21.3v141.8"/>
    <path fill="none" stroke-width="5.659" stroke-linecap="round" stroke-miterlimit="10" stroke="currentColor" d="M371.5 169.3v6"/>
    <text style="fill: rgb(230, 97, 91); font-family: Arial, sans-serif; font-size: 51px; font-weight: 700; letter-spacing: 2.3px; white-space: pre;" x="99.838" y="109.059">PUBLIC</text>
  </g>
</svg>